<?xml version="1.0" encoding="UTF-8" standalone="no"?>
<!-- Created with Inkscape (http://www.inkscape.org/) -->

<svg
   width="48"
   height="48"
   viewBox="0 0 12.7 12.7"
   version="1.1"
   id="svg1"
   xml:space="preserve"
   xmlns="http://www.w3.org/2000/svg"
   xmlns:svg="http://www.w3.org/2000/svg"><defs
     id="defs1" /><path
     style="fill:#5a82d8;fill-opacity:1;stroke:#5a82d8;stroke-width:0.359199;stroke-linecap:round;stroke-linejoin:round;stroke-dasharray:none;stroke-opacity:1"
     d="M 12.118446,12.11924 H 0.57793709 l -0.001463,-3.845364 0.001376,-7.696026 c 3.82500511,-3.4252e-4 7.71559251,-0.00373 11.54059591,0 z"
     id="path1" /><path
     style="fill:none;fill-opacity:1;stroke:#ffffff;stroke-width:1.00055;stroke-linecap:butt;stroke-linejoin:round;stroke-dasharray:none;stroke-opacity:1"
     d="m 12.298883,1.8172514 c -1.569497,0.0066 -5.8375509,0.4389477 -5.2099347,2.7026353 0.6393743,2.1048934 4.0097287,0.8099186 3.9397987,3.0241755 0.0066,1.873525 -3.687801,0.927451 -4.9528015,2.2210861 C 5.4331677,10.422477 5.0039624,11.829941 5.0039624,12.306416"
     id="path34" /><path
     style="fill:none;fill-opacity:1;stroke:#ffffff;stroke-width:1.00055;stroke-linecap:butt;stroke-linejoin:round;stroke-dasharray:none;stroke-opacity:1"
     d="M 6.6981333,4.2307351 C 5.7857075,4.3028479 5.2884899,3.1437059 4.9721408,2.5472062 4.3569016,2.6421606 5.9247322,6.2704968 4.6141002,6.2745627 3.6377918,6.4875161 2.588043,3.2760778 1.7803838,3.2976377 1.3902802,3.6766754 2.1704786,6.6826981 1.6862418,7.4982243 1.202005,8.31375 0.3978587,8.3136049 0.3978587,8.3136049"
     id="path35" /></svg>
